<?xml version="1.0" standalone="no"?>
<!DOCTYPE svg PUBLIC "-//W3C//DTD SVG 1.1//EN" "http://www.w3.org/Graphics/SVG/1.1/DTD/svg11.dtd" >
<svg>
<metadata>
Created by FontForge 20110222 at Mon Mar  7 13:25:54 2011
 By www-data
Typeface (c) Marijanco Galevski -- Inventif Systems 1993. All Rights Reserved
</metadata>
<defs>
<font id="MacedonianHelv" horiz-adv-x="1139" >
  <font-face 
    font-family="Macedonian Helv"
    font-weight="400"
    font-stretch="normal"
    units-per-em="2048"
    panose-1="2 11 6 4 2 2 2 2 2 4"
    ascent="1638"
    descent="-410"
    x-height="1071"
    cap-height="1470"
    bbox="-35 -434 2048 1862"
    underline-thickness="150"
    underline-position="-142"
    unicode-range="U+0020-2122"
  />
    <missing-glyph />
    <glyph glyph-name="space" unicode=" " horiz-adv-x="569" 
 />
    <glyph glyph-name="exclam" unicode="!" horiz-adv-x="569" 
d="M231 364l-55 777v325h223v-325l-52 -777h-116zM184 0v205h207v-205h-207z" />
    <glyph glyph-name="quotedbl" unicode="&#x22;" horiz-adv-x="727" 
d="M144 947l-50 279v240h205v-240l-45 -279h-110zM475 947l-49 279v240h205v-240l-48 -279h-108z" />
    <glyph glyph-name="numbersign" unicode="#" 
d="M997 199q-32 -58 -98 -117q-61 -55 -147 -88q-47 -13 -89 -20t-83 -7q-59 0 -110 8t-95 27q-82 37 -158 111q-69 75 -104 180q-15 57 -24 121t-9 127q0 126 36 231t110 179t161 112q42 18 87.5 28.5t88.5 10.5q62 0 112 -8t91 -27q84 -29 156 -100q31 -31 57 -75.5
t45 -96.5q35 -100 35 -234v-90h-783q0 -36 4.5 -71.5t14.5 -71.5q18 -63 57 -107q40 -41 101 -74q57 -22 125 -22q58 0 108 12q19 5 38.5 16t39.5 27q17 17 30 32.5t27.5 36t29.5 52.5q2 3 17 39l179 2q-6 -34 -19 -71t-31 -72zM854 754q-18 54 -59 100q-32 38 -92 63
t-125 25q-32 0 -61 -5t-56 -17q-52 -19 -96 -68q-20 -22 -37.5 -49t-30.5 -60l-14 -61q-3 -18 -5 -33.5t-2 -32.5l598 2q0 77 -20 136zM339 1200l133 280h236l-220 -280h-149z" />
    <glyph glyph-name="dollar" unicode="$" 
d="M510 -211v180q-134 16 -218 59.5t-148 141.5q-59 94 -71 237l181 34q21 -146 74 -213q74 -95 182 -107v573q-112 21 -227 86q-85 48 -132 133.5t-47 192.5q0 191 136 311q89 78 270 98v86h106v-86q157 -15 249 -92q117 -97 142 -269l-186 -28q-15 106 -65.5 162.5
t-139.5 74.5v-519q140 -34 180 -53q82 -35 136 -88.5t82.5 -127t28.5 -158.5q0 -187 -119 -312q-61 -64 -138.5 -99t-169.5 -35v-182h-106zM510 1365q-104 -15 -165 -83.5t-61 -161.5q0 -91 51 -153.5t175 -99.5v498zM616 121q104 12 173 90.5t69 193.5q0 98 -48 157
t-194 107v-548z" />
    <glyph glyph-name="percent" unicode="%" horiz-adv-x="1821" 
d="M119 1114q0 157 78.5 267t229.5 110q138 0 228.5 -99t90.5 -289q0 -186 -91.5 -286.5t-225.5 -100.5q-132 0 -221 99.5t-89 298.5zM432 1367q-66 0 -111 -58t-45 -213q0 -140 45 -198t111 -58q67 0 112 57.5t45 212.5q0 140 -45.5 198.5t-111.5 58.5zM433 -54l802 1545
h146l-799 -1545h-149zM1067 344q0 158 78.5 267.5t230.5 109.5q138 0 228.5 -99t90.5 -289q0 -186 -92 -287q-46 -50 -101.5 -75t-124.5 -25q-132 0 -221 99.5t-89 298.5zM1381 597q-67 0 -112 -58t-45 -213q0 -139 45.5 -197.5t110.5 -58.5q68 0 113 57.5t45 212.5
q0 140 -45.5 198.5t-111.5 58.5z" />
    <glyph glyph-name="ampersand" unicode="&#x26;" horiz-adv-x="569" 
d="M311 1071v-801l490 801h211v-1071h-185v801l-489 -801h-211v1071h184zM321 1188l133 280h236l-220 -280h-149z" />
    <glyph glyph-name="quotesingle" unicode="'" horiz-adv-x="391" 
d="M136 947l-46 274v245h205v-245l-48 -274h-111z" />
    <glyph glyph-name="parenleft" unicode="(" horiz-adv-x="682" 
d="M479 -431q-149 189 -252 441.5t-103 520.5q0 240 77 456q91 255 278 504h129q-118 -203 -160 -297q-60 -138 -96 -288q-21 -94 -32 -187t-11 -189q0 -481 299 -961h-129z" />
    <glyph glyph-name="parenright" unicode=")" horiz-adv-x="682" 
d="M204 -431h-129q299 481 299 961q0 189 -43 373q-16 75 -39.5 147t-55.5 141q-42 97 -161 300h129q186 -248 278 -504q77 -219 77 -456q0 -272 -103 -523.5t-252 -438.5z" />
    <glyph glyph-name="asterisk" unicode="*" horiz-adv-x="797" 
d="M64 1197l46 142q161 -56 231 -97q-6 59 -13 131.5t-7 117.5h145q0 -49 -5.5 -105.5t-17.5 -142.5q49 24 110 49t126 47l46 -142q-121 -40 -249 -56q58 -51 172 -189l-120 -85q-55 75 -137 215q-73 -140 -130 -215l-118 85q117 144 166 189q-136 25 -245 56z" />
    <glyph glyph-name="plus" unicode="+" horiz-adv-x="1196" 
d="M513 237v402h-399v168h399v399h170v-399h399v-168h-399v-402h-170z" />
    <glyph glyph-name="comma" unicode="," horiz-adv-x="569" 
d="M182 0v205h205v-205q0 -112 -39.5 -181.5t-127.5 -108.5l-50 77q58 24 84 74q15 26 22.5 59.5t7.5 79.5h-102z" />
    <glyph glyph-name="hyphen" unicode="-" horiz-adv-x="682" 
d="M65 440v181h553v-181h-553z" />
    <glyph glyph-name="period" unicode="." horiz-adv-x="569" 
d="M186 0v205h205v-205h-205z" />
    <glyph glyph-name="slash" unicode="/" horiz-adv-x="569" 
d="M0 -25l425 1516h144l-424 -1516h-145z" />
    <glyph glyph-name="zero" unicode="0" 
d="M85 723q0 129 13 234t40 184q54 158 159.5 244.5t265.5 86.5q117 0 206.5 -47.5t147 -136.5t91 -218t33.5 -347q0 -261 -52.5 -417t-159 -243.5t-266.5 -87.5q-212 0 -333 152q-145 184 -145 596zM270 723q0 -359 84 -479.5t209 -120.5q122 0 207.5 120.5t85.5 479.5
q0 362 -84.5 481t-210.5 119q-123 0 -198 -105q-93 -134 -93 -495z" />
    <glyph glyph-name="one" unicode="1" 
d="M763 0h-180v1147q-63 -60 -169.5 -122.5t-190.5 -94.5v174q151 71 263.5 171.5t160.5 196.5h116v-1472z" />
    <glyph glyph-name="two" unicode="2" 
d="M1031 173v-173h-969q0 38 4 64.5t17 60.5q36 100 118.5 197t235.5 220q237 194 322 309t85 218q0 107 -76.5 180.5t-199.5 73.5q-128 0 -207.5 -78.5t-79.5 -215.5l-185 19q18 208 142.5 316t333.5 108t333 -117t124 -290q0 -86 -35.5 -170.5t-120 -180.5t-277.5 -259
q-164 -136 -208 -184t-76 -98h719z" />
    <glyph glyph-name="three" unicode="3" 
d="M86 387l180 24q30 -152 105.5 -220t181.5 -68q126 0 214 88t88 218q0 123 -81 204t-206 81q-54 0 -127 -20l20 158l29 -2q114 0 206.5 60t92.5 185q0 98 -67 163.5t-173 65.5q-104 0 -174 -66t-91 -198l-180 32q33 179 150.5 279.5t290.5 100.5q120 0 221 -51.5
t154.5 -140.5t53.5 -189q0 -93 -51 -172t-151 -125q129 -30 201.5 -124t72.5 -237q0 -192 -140.5 -325.5t-353.5 -133.5q-193 0 -320 114.5t-146 298.5z" />
    <glyph glyph-name="four" unicode="4" 
d="M662 0v351h-636v165l669 950h147v-950h198v-165h-198v-351h-180zM662 516v661l-459 -661h459z" />
    <glyph glyph-name="five" unicode="5" 
d="M85 384l189 16q21 -138 97.5 -207.5t184.5 -69.5q129 0 219.5 98t90.5 260q0 153 -86.5 242.5t-226.5 89.5q-87 0 -155.5 -39t-111.5 -103l-169 22l142 753h729v-172h-585l-79 -394q133 92 277 92q192 0 324 -132.5t132 -342.5q0 -198 -116 -344q-142 -178 -385 -178
q-200 0 -326.5 111.5t-144.5 297.5z" />
    <glyph glyph-name="six" unicode="6" 
d="M1019 1107l-179 -14q-24 106 -68 154q-72 77 -180 77q-85 0 -151 -48q-83 -61 -134 -181q-24 -58 -37.5 -146t-13.5 -193q65 99 158.5 147t197.5 48q180 0 306.5 -133t126.5 -342q0 -137 -59 -255.5t-163.5 -182t-236.5 -63.5q-224 0 -366.5 165.5t-142.5 545.5
q0 425 157 618q137 168 369 168q173 0 283.5 -96.5t132.5 -268.5zM284 475q0 -92 39 -176.5t110.5 -130t149.5 -45.5q114 0 196 92.5t82 249.5q0 150 -81.5 238.5t-203.5 88.5t-207 -88t-85 -229z" />
    <glyph glyph-name="seven" unicode="7" 
d="M97 1274v173h949v-140q-137 -146 -278 -396q-135 -243 -212 -508q-32 -108 -48 -192q-21 -110 -21 -211h-185q0 165 68 418q64 244 186 472.5t259 383.5h-718z" />
    <glyph glyph-name="eight" unicode="8" 
d="M362 795q-110 40 -165 116t-55 183q0 158 115 268t306 110q193 0 309.5 -111.5t116.5 -271.5q0 -101 -53 -176.5t-163 -117.5q135 -43 205.5 -141.5t70.5 -234.5q0 -187 -133 -315.5t-350 -128.5q-216 0 -349.5 129t-133.5 320q0 141 72 238t207 133zM326 1100
q0 -103 66.5 -169.5t174.5 -66.5q104 0 170.5 66t66.5 160q0 98 -68.5 166t-170.5 68t-170.5 -66t-68.5 -158zM268 423q0 -75 36 -148t108.5 -112.5t155.5 -39.5q130 0 213.5 83t83.5 211t-87 214t-216 86q-125 0 -209.5 -84.5t-84.5 -209.5z" />
    <glyph glyph-name="nine" unicode="9" 
d="M112 339l173 16q21 -121 84 -176.5t159 -55.5q84 0 146 38t101 100.5t67 171.5t28 221l-1 36q-53 -84 -147.5 -138.5t-202.5 -54.5q-180 0 -307 132t-127 348q0 222 132 358.5t329 136.5q71 0 136.5 -19t124.5 -58q119 -77 180.5 -219.5t61.5 -412.5q0 -281 -60.5 -447
t-181.5 -253.5t-283 -87.5q-171 0 -279.5 95t-132.5 269zM849 986q0 156 -82.5 246.5t-198.5 90.5q-120 0 -209 -98t-89 -254q0 -139 84 -227t209 -88q124 0 205 87t81 243z" />
    <glyph glyph-name="colon" unicode=":" horiz-adv-x="569" 
d="M185 857v205h205v-205h-205zM185 0v205h205v-205h-205z" />
    <glyph glyph-name="semicolon" unicode=";" horiz-adv-x="569" 
d="M182 857v205h205v-205h-205zM182 0v205h205v-205q0 -112 -39.5 -181.5t-127.5 -108.5l-50 77q58 24 84 74q15 26 22.5 59.5t7.5 79.5h-102z" />
    <glyph glyph-name="less" unicode="&#x3c;" horiz-adv-x="1196" 
d="M112 641v168l971 410v-179l-770 -316l770 -319v-179z" />
    <glyph glyph-name="equal" unicode="=" horiz-adv-x="1196" 
d="M1082 862h-968v168h968v-168zM1082 417h-968v168h968v-168z" />
    <glyph glyph-name="greater" unicode="&#x3e;" horiz-adv-x="1196" 
d="M1083 641l-971 -415v179l769 319l-769 316v179l971 -410v-168z" />
    <glyph glyph-name="question" unicode="?" 
d="M472 361l-1 54q0 105 30 183q10 27 28.5 58t42.5 59q32 38 129 125q91 81 120.5 131.5t29.5 107.5q0 105 -82 184.5t-201 79.5q-114 0 -190.5 -71.5t-102.5 -225.5l-185 22q24 203 148 313t327 110q214 0 342.5 -117t128.5 -283q0 -96 -45 -177t-176 -197
q-87 -78 -114 -114t-41 -86q-6 -22 -10.5 -65.5t-4.5 -90.5h-173zM461 0v205h205v-205h-205z" />
    <glyph glyph-name="at" unicode="@" horiz-adv-x="2048" 
d="M739 686l-463 -686h-264l588 842l-573 628h264l635 -720v720h196v-720l635 720h264l-573 -628l588 -842h-264l-463 686l-187 -203v-483h-196v483z" />
    <glyph glyph-name="A" unicode="A" horiz-adv-x="1364" 
d="M395 444l-157 -444h-211l553 1470h225l532 -1470h-211l-157 444h-574zM451 604h462l-229 645z" />
    <glyph glyph-name="B" unicode="B" horiz-adv-x="1364" 
d="M1128 1470v-172h-780v-434h471q110 0 193 -33q86 -27 147 -88q63 -55 92 -137l25 -82l8 -94q0 -96 -31 -174q-27 -73 -92 -141q-62 -56 -147 -86q-95 -29 -195 -29h-667v1470h976zM348 172h445q55 0 108 13t90 40q41 30 64 86q9 26 14.5 58.5t5.5 60.5q0 69 -19.5 118.5
t-56 80t-92.5 45.5q-28 8 -54 12t-60 4l-445 2v-520z" />
    <glyph glyph-name="C" unicode="C" horiz-adv-x="1479" 
d="M348 1470v-1298h782v1298h197v-1298h121v-594h-184v422h-1112v1470h196z" />
    <glyph glyph-name="D" unicode="D" horiz-adv-x="1364" 
d="M221 0v-422h-184v594h133l41 98l43 129l25 109l40 201l29 194q12 87 12 170l7 201l8 194l807 2v-1298h145v-594h-184v422h-922zM559 1298l-6 -139l-6 -147v-78l-8 -51l-27 -199q-6 -61 -20 -128.5t-35 -137.5q-18 -75 -37.5 -134.5t-44.5 -113.5l610 2v1126h-426z" />
    <glyph glyph-name="E" unicode="E" horiz-adv-x="1364" 
d="M1225 1470v-172h-877v-454h809v-172h-809v-500h891v-172h-1087v1470h1073z" />
    <glyph glyph-name="F" unicode="F" horiz-adv-x="1593" 
d="M895 322q98 0 182.5 24t141.5 78q28 29 50.5 60.5t41.5 72.5q15 37 23.5 83.5t8.5 92.5q0 88 -30 168q-16 41 -37.5 73t-52.5 60q-50 50 -136 81.5t-192 31.5v-825zM449 207q-112 35 -205 110q-85 70 -131.5 179.5t-46.5 236.5q0 129 43 235t135.5 180t204 110t249.5 36
v176h197v-174q137 0 251 -37.5t202.5 -108.5t134.5 -181q22 -56 33.5 -114t11.5 -122q0 -133 -43.5 -231.5t-136.5 -179.5q-86 -71 -201 -111q-57 -19 -119 -29t-133 -10v-172h-197v174q-139 0 -249 33zM698 1149q-98 0 -188 -31q-36 -12 -70 -31.5t-69 -48.5
q-58 -58 -92 -133q-29 -75 -29 -172q0 -56 6.5 -98t22.5 -80q29 -71 88 -127q27 -24 61.5 -44t81.5 -38q45 -11 95.5 -19t92.5 -8v830z" />
    <glyph glyph-name="G" unicode="G" 
d="M1100 1470v-172h-752v-1298h-196v1470h948z" />
    <glyph glyph-name="H" unicode="H" horiz-adv-x="1364" 
d="M559 754l-493 716h243l373 -563l373 563h243l-493 -716l522 -754h-244l-401 604l-401 -604h-244z" />
    <glyph glyph-name="I" unicode="I" horiz-adv-x="1479" 
d="M348 1470v-1189l752 1189h227v-1470h-197v1196l-751 -1196h-227v1470h196z" />
    <glyph glyph-name="J" unicode="J" horiz-adv-x="1024" 
d="M872 1470v-1056q0 -119 -30.5 -208t-91.5 -147q-56 -42 -142 -69q-43 -13 -86 -20t-92 -7q-42 0 -80 5t-74 18q-69 22 -129 71q-55 50 -86 123q-13 47 -19.5 89t-6.5 85v119h184v-102q0 -53 12 -103q14 -47 39 -75q18 -23 68 -46l47 -10l55 -4q52 0 99 12q46 14 75 43
t45 86l13 56l4 71v1069h196z" />
    <glyph glyph-name="K" unicode="K" horiz-adv-x="1364" 
d="M348 1470v-716l717 716h274l-612 -593l629 -877h-258l-516 739l-234 -227v-512h-196v1470h196z" />
    <glyph glyph-name="L" unicode="L" horiz-adv-x="1364" 
d="M532 1298l-2 -114l-2 -121l-6 -137l-4 -109l-6 -135l-10 -107l-19 -219q0 -47 -6 -77q-3 -24 -4 -30t-6 -22l-14 -51q-11 -39 -23 -65t-31 -52q-31 -46 -92 -73l-59 -17l-72 -6l-78 6l-61 19v172l45 -21q24 -6 59 -6q45 0 74 19q15 10 25.5 24t19.5 39q17 41 29 139
q4 42 7 97.5t3 105.5l2 238l12 303l13 262l4 108l882 2v-1470h-196v1298h-484z" />
    <glyph glyph-name="M" unicode="M" horiz-adv-x="1704" 
d="M434 1470l416 -1237l420 1237h282v-1470h-184v1237l-418 -1237h-196l-414 1237l-4 -1237h-184v1470h282z" />
    <glyph glyph-name="N" unicode="N" horiz-adv-x="1479" 
d="M348 1470v-606h782v606h197v-1470h-197v692h-782v-692h-196v1470h196z" />
    <glyph glyph-name="O" unicode="O" horiz-adv-x="1593" 
d="M492 18q-129 50 -221.5 166.5t-145.5 255.5l-33 140q-12 74 -12 153q0 92 11 170t36 146q50 138 144 240.5t223.5 159t302.5 56.5q42 0 78.5 -3t94.5 -12.5t124 -37.5q133 -49 224 -153.5t144 -249.5q26 -74 38.5 -151t12.5 -165q0 -80 -11 -153t-36 -140
q-42 -128 -137.5 -246t-227.5 -174.5t-304 -56.5q-82 0 -157.5 13.5t-147.5 41.5zM580 1292q-45 -19 -84 -48t-76 -73q-66 -78 -105 -195.5t-39 -242.5q0 -65 8 -127t23.5 -119t39 -105.5t56.5 -86.5q64 -76 166 -123q115 -39 228 -39q129 0 221 37q49 20 87 47.5t73 71.5
q31 36 57 87t45 109q37 115 37 248q0 72 -8 133t-27 115q-33 105 -100 186.5t-164 123.5t-221 42q-64 0 -115 -9t-102 -32z" />
    <glyph glyph-name="P" unicode="P" horiz-adv-x="1479" 
d="M1327 1470v-1470h-197v1298h-782v-1298h-196v1470h1175z" />
    <glyph glyph-name="Q" unicode="Q" horiz-adv-x="2048" 
d="M1137 172h340q55 0 108 13t90 40q41 30 64 86q9 26 14.5 58.5t5.5 60.5q0 69 -19.5 118.5t-56 80t-92.5 45.5q-28 8 -54 12t-60 4l-340 2v-520zM82 139q24 -6 59 -6q45 0 74 19q15 10 25.5 24t19.5 39q17 41 29 139q4 42 7 97.5t3 105.5l2 238l12 303l13 262l4 108l807 2
v-606h366q110 0 193 -33q86 -27 147 -88q63 -55 92 -137l25 -82l8 -94q0 -96 -31 -174q-27 -73 -92 -141q-62 -56 -147 -86q-95 -29 -195 -29h-563v1298h-408l-2 -114l-2 -121l-6 -137l-4 -109l-6 -135l-10 -107l-19 -219q0 -47 -6 -77q-3 -24 -4 -30t-6 -22l-14 -51
q-11 -39 -23 -65t-31 -52q-31 -46 -92 -73l-59 -17l-72 -6l-78 6l-61 19v172z" />
    <glyph glyph-name="R" unicode="R" horiz-adv-x="1366" 
d="M883 795q53 12 86 45q34 31 55 86q9 26 14.5 55.5t5.5 56.5q0 57 -18 113q-11 41 -49 78q-15 16 -37 28t-57 23l-60 12l-73 4l-402 2v-516h402q71 0 133 13zM770 1470q109 0 205 -30q90 -26 147 -86q57 -51 86 -133q16 -40 24.5 -86.5t8.5 -96.5q0 -55 -6 -96.5
t-23 -81.5q-24 -74 -88 -135q-53 -50 -149 -88q-95 -29 -205 -29l-422 2v-610h-196v1470h618z" />
    <glyph glyph-name="S" unicode="S" horiz-adv-x="1479" 
d="M920 162q71 27 129 88q13 13 29 33l18 24l43 66q32 66 49 151l190 2q-6 -61 -20 -112.5t-39 -96.5q-44 -102 -125 -186q-39 -39 -85.5 -70t-104.5 -57q-53 -17 -113 -31q-25 -4 -60.5 -7t-70.5 -3q-58 0 -79 1.5t-60.5 7t-110.5 32.5q-60 22 -114 53.5t-105 73.5
q-99 83 -158 236q-27 75 -40 159.5t-13 188.5q0 210 49.5 357t149.5 241q95 89 225 145l24 7.5t27 9.5q15 4 44 10.5t42 9.5q58 10 125 10q139 0 243 -36t191 -111q77 -72 125 -156q43 -79 43 -170l-192 2q-11 38 -23 66.5t-31 56.5q-31 58 -84 92q-47 36 -125 62l-67 16
q-35 6 -74 6q-65 0 -108 -8q-46 -6 -95 -33q-85 -36 -153 -116.5t-107 -194.5q-16 -63 -24.5 -123.5t-8.5 -122.5q0 -63 8 -125.5t23 -120.5q32 -112 99 -192q34 -40 73 -71t84 -52q88 -41 197 -41q48 0 85 6t75 23z" />
    <glyph glyph-name="T" unicode="T" horiz-adv-x="1253" 
d="M1225 1470v-172h-500v-1298h-197v1298h-499v172h1196z" />
    <glyph glyph-name="U" unicode="U" horiz-adv-x="1364" 
d="M283 178l34 -10l41 -8l56 -2l84 6q20 3 32.5 9t22.5 20q17 11 31 36q11 23 14 58l-2 28l-4 27q0 11 -14 35l-27 57l-504 1036h229l457 -983l397 983h222l-482 -1099q-47 -112 -100 -201q-7 -14 -20 -36q-1 -1 -23 -36q-22 -32 -47 -51q-38 -38 -117 -63l-74 -15l-88 -6
h-39l-49 10q-19 2 -57 19v203z" />
    <glyph glyph-name="V" unicode="V" horiz-adv-x="1364" 
d="M799 1470l96 -6q24 -3 44 -8.5t38 -13.5q39 -14 68.5 -31.5t58.5 -46.5q54 -51 82 -127q14 -38 21 -70t7 -69q0 -38 -12 -86q-6 -22 -14.5 -43.5t-20.5 -43.5t-26.5 -40.5t-36.5 -40.5l-29 -23l-57 -30q40 -14 69 -28.5t56 -35.5q47 -29 80 -80q28 -37 45 -102l12 -53
l4 -60q0 -86 -30 -157t-93.5 -139t-163.5 -103q-48 -15 -105.5 -24t-119.5 -9h-620v1470h647zM901 186q71 14 105 47q33 29 57 82t24 111q0 62 -19.5 110.5t-59.5 77.5q-33 30 -103 49t-162 19l-395 2v-512h395q95 0 158 14zM862 856q27 6 49 16.5t41 26.5l23 27
q12 18 27.5 55t15.5 90q0 33 -3.5 54t-13.5 40q-12 41 -47 70q-27 27 -92.5 44t-146.5 17l-367 2v-454h367q85 0 147 12z" />
    <glyph glyph-name="W" unicode="W" horiz-adv-x="2048" 
d="M1182 172h295q55 0 108 13t90 40q41 30 64 86q9 26 14.5 58.5t5.5 60.5q0 69 -19.5 118.5t-56 80t-92.5 45.5q-28 8 -54 12t-60 4l-295 2v-520zM348 1470v-606h637v606h197v-606h321q110 0 193 -33q86 -27 147 -88q63 -55 92 -137l25 -82l8 -94q0 -96 -31 -174
q-27 -73 -92 -141q-62 -56 -147 -86q-95 -29 -195 -29h-518v692h-637v-692h-196v1470h196z" />
    <glyph glyph-name="X" unicode="X" horiz-adv-x="1479" 
d="M360 1470v-1298h758v1298h209v-1470h-489v-356h-197v356h-489v1470h208z" />
    <glyph glyph-name="Y" unicode="Y" horiz-adv-x="1364" 
d="M1014 1153q-19 45 -62 89t-120.5 67.5t-153.5 23.5q-100 0 -152 -16q-61 -12 -106 -47q-20 -16 -37 -36t-31 -48l-14 -51q-6 -29 -6 -58q0 -34 12 -67q6 -15 16 -28.5t27 -29.5q32 -24 82 -43l113 -35l292 -69q54 -14 94.5 -28.5t80.5 -35.5q73 -36 118 -82
q42 -38 72 -108l16 -55q11 -39 11 -86q0 -112 -41 -200t-131 -144q-86 -48 -198 -75.5t-224 -27.5q-76 0 -136.5 8t-109.5 27q-105 30 -179 99.5t-111.5 157t-37.5 196.5v26h185q0 -77 24 -139q25 -55 88 -115q30 -22 59 -38t66 -29l72 -17l84 -6q84 0 155.5 12.5t123.5 43
t83 78t31 112.5q0 56 -16 92q-13 36 -45 64q-26 22 -90 53l-50 16l-84 25l-262 67q-49 11 -86.5 23t-76 30t-65 36t-56.5 44q-46 46 -70 105l-14 63q-3 18 -5 34.5t-2 35.5q0 44 7.5 86.5t23.5 83.5q31 75 99 137.5t172.5 96.5t218.5 34q66 0 116 -6t103 -22
q101 -30 184 -95q71 -59 111 -149q20 -43 30.5 -93.5t10.5 -103.5l-185 2q0 53 -24 115z" />
    <glyph glyph-name="Z" unicode="Z" horiz-adv-x="1251" 
d="M702 854q30 0 54.5 3t48.5 11q21 11 38.5 23t39.5 29l20 28l27 45q16 46 16 86q0 35 -5 62.5t-17 50.5q-19 41 -58 72q-34 26 -98 49q-30 9 -63 14.5t-62 5.5q-44 0 -79 -5t-62 -17q-32 -10 -57.5 -25.5t-49.5 -40.5q-38 -41 -71 -108q-17 -38 -33 -129l-185 2
q0 127 38 220t120 154q76 53 178 89q48 14 103.5 23t107.5 9l92 -6q24 0 43 -8q12 -3 23.5 -6t35 -10.5t35 -12t31.5 -16.5q20 -10 37 -20.5t37 -26.5q68 -50 107 -127q36 -74 36 -170q0 -57 -10.5 -110.5t-34.5 -88.5q-14 -29 -61 -65q-12 -14 -39 -25l-53 -22
q31 -10 56.5 -22.5t47.5 -29.5q47 -30 86 -80q28 -36 49 -102t21 -143q0 -114 -39 -191q-20 -40 -47.5 -72.5t-71.5 -64.5q-74 -54 -180 -90q-48 -15 -102 -24t-107 -9q-58 0 -106 6t-99 21q-95 24 -182 79t-137 144q-24 42 -39.5 94t-22.5 115l189 2q9 -67 38 -116t81 -95
l47 -29l71 -30l72 -15l86 -6l72 2h13q6 0 19 2.5t21 5.5q13 6 20 9q48 12 102.5 48t79.5 93.5t25 130.5q0 59 -19 108.5t-58 87t-95 55t-133 17.5l-143 2v160h155z" />
    <glyph glyph-name="bracketleft" unicode="[" horiz-adv-x="1933" 
d="M348 1470v-1298h520v1298h197v-1298h520v1298h197v-1470h-1630v1470h196z" />
    <glyph glyph-name="backslash" unicode="\" 
d="M1100 1470v-172h-752v-1298h-196v1470h948zM836 1862l-269 -295h-137l182 295h224z" />
    <glyph glyph-name="bracketright" unicode="]" horiz-adv-x="1364" 
d="M348 1470v-716l717 716h274l-612 -593l629 -877h-258l-516 739l-234 -227v-512h-196v1470h196zM948 1862l-268 -295h-137l182 295h223z" />
    <glyph glyph-name="asciicircum" unicode="^" horiz-adv-x="1364" 
d="M905 580l-94 -17l-92 -10l-101 -2q-134 0 -233 18q-48 10 -88.5 24.5t-71.5 35.5q-60 38 -98 123q-31 78 -31 196v522h197v-532q0 -38 3.5 -62t12.5 -47q21 -38 51 -63q14 -9 37 -17.5t54 -15.5l77 -10h62l141 2h19h15q12 2 17 2q20 0 29 1t29 7l90 15q52 6 86 20v700
h196v-1470h-196v604z" />
    <glyph glyph-name="underscore" unicode="_" 
d="M-31 -407v130h1193v-130h-1193z" />
    <glyph glyph-name="grave" unicode="`" horiz-adv-x="1593" 
d="M569 498l-338 -498h-208l430 616l-412 455h221l443 -498v498h184v-498l442 498h221l-411 -455l430 -616h-209l-338 498l-135 -154v-344h-184v344z" />
    <glyph glyph-name="a" unicode="a" 
d="M162 907q15 33 37.5 61.5t53 49.5t63.5 35.5t75 25.5l82 17l100 6q82 0 154.5 -18.5t130.5 -55.5q53 -31 90 -92q15 -27 24 -60.5t9 -70.5v-621q0 -34 14 -51q7 -4 45 -14h15l16 2l16 2l13 4v-125l-21 -4l-26 -6l-29 -4l-23 -2h-45l-49 10q-17 0 -47 20q-8 7 -16 17.5
t-19 27.5q0 8 -8 27q-2 14 -3.5 22.5t-6.5 28.5l-80 -73q-41 -32 -88 -56q-19 -8 -47 -16.5t-55 -13.5q-53 -13 -123 -13q-40 0 -66 4t-61 17q-57 19 -107 57q-44 40 -71 98l-17 58l-6 73v30.5t2 33.5t6.5 35.5t14.5 38.5q24 56 69 98q6 6 13.5 12t21.5 15l70 38l51 17
l74 18l301 39l36 6q6 1 13 7.5t16 17.5l21 39q6 21 6 53q0 28 -3 46t-14 38q-15 31 -45 51q-23 17 -75 33q-24 7 -50.5 10.5t-58.5 3.5q-123 0 -186 -51q-31 -25 -47.5 -64t-16.5 -91l-172 2q0 49 6.5 85.5t22.5 71.5zM756 518l-49 -12l-74 -12l-111 -17q-24 0 -34 -1.5
t-27 -6.5q-29 -3 -51 -14q-16 -4 -37 -14t-41 -23q-23 -11 -45 -51l-13 -31l-4 -35q0 -39 13 -76t36 -63q26 -26 64 -37.5t82 -11.5l53 2q19 0 53 14q52 12 109 47q29 18 49.5 37.5t36.5 44.5q31 51 31 113v174z" />
    <glyph glyph-name="b" unicode="b" 
d="M350 6q-87 37 -155 117q-52 75 -91 188q-15 54 -23.5 119t-8.5 129l2 100v25t2 31q0 25 1.5 35.5t6.5 35.5l12 78q3 20 8.5 42t14.5 46q23 88 63 164q35 69 99 133q55 56 135 94q37 18 82 34t98 28q51 6 87 14t60 21q51 18 62 45l127 2q-4 -19 -13.5 -43.5t-23.5 -52.5
q-15 -19 -33 -37q-3 -3 -26 -23q-33 -17 -88 -37l-119 -20q-35 0 -66 -8.5t-65 -24.5q-53 -23 -103 -76q-48 -47 -80 -106l-22 -45q-8 -19 -11 -28q-14 -34 -20 -54q17 18 28 28q15 13 38 31l69 43q18 8 36.5 14.5t40.5 10t36 5.5t20 5h41q117 0 207 -36t156 -111
q32 -36 57 -76t43 -88l25 -94l8 -105q0 -146 -31.5 -245.5t-93.5 -186.5q-56 -71 -160 -121q-48 -18 -104 -28.5t-111 -10.5q-121 0 -217 39zM430 893q-64 -30 -98 -82q-28 -44 -58 -131q-18 -74 -18 -164q0 -88 18.5 -158.5t55.5 -130.5q18 -28 41.5 -49t56.5 -39l55 -16
q42 -10 86 -10q79 0 137 26t95 80q17 27 32.5 60t28.5 73l15 78l6 86q0 103 -21 166q-9 32 -22 62.5t-33 62.5q-32 52 -98 84q-31 15 -65.5 23t-74.5 8q-74 0 -139 -29z" />
    <glyph glyph-name="c" unicode="c" 
d="M319 1071v-911h500v911h185v-911h102v-582h-172v422h-799v1071h184z" />
    <glyph glyph-name="d" unicode="d" horiz-adv-x="1251" 
d="M541 911v-24v-23v-90l-9 -47l-6 -68l-14 -81q-7 -41 -20 -84l-29 -82q-14 -45 -15 -48q-12 -36 -26 -71q-6 -16 -21.5 -57t-31.5 -78l526 2v751h-354zM213 0v-422h-172v582h139l56 135l47 121l34 125l33 151l10 74l13 102l8 201l698 2v-911h131v-582h-172v422h-825z" />
    <glyph glyph-name="e" unicode="e" 
d="M997 199q-32 -58 -98 -117q-61 -55 -147 -88q-47 -13 -89 -20t-83 -7q-59 0 -110 8t-95 27q-82 37 -158 111q-69 75 -104 180q-15 57 -24 121t-9 127q0 126 36 231t110 179t161 112q42 18 87.5 28.5t88.5 10.5q62 0 112 -8t91 -27q84 -29 156 -100q31 -31 57 -75.5
t45 -96.5q35 -100 35 -234v-90h-783q0 -36 4.5 -71.5t14.5 -71.5q18 -63 57 -107q40 -41 101 -74q57 -22 125 -22q58 0 108 12q19 5 38.5 16t39.5 27q17 17 30 32.5t27.5 36t29.5 52.5q2 3 17 39l179 2q-6 -34 -19 -71t-31 -72zM854 754q-18 54 -59 100q-32 38 -92 63
t-125 25q-32 0 -61 -5t-56 -17q-52 -19 -96 -68q-20 -22 -37.5 -49t-30.5 -60l-14 -61q-3 -18 -5 -33.5t-2 -32.5l598 2q0 77 -20 136z" />
    <glyph glyph-name="f" unicode="f" horiz-adv-x="1706" 
d="M743 770q-13 58 -45 92q-14 17 -32.5 31.5t-44.5 28.5q-21 9 -45.5 14.5t-45.5 5.5q-39 0 -68.5 -6.5t-55.5 -22.5q-49 -27 -84 -84q-30 -52 -50 -131l-12 -75l-4 -88l2 -80q0 -17 2 -34.5t8 -37.5l21 -78l28 -65q28 -55 82 -97q50 -30 125 -30q59 0 96.5 17t69.5 59
t53 104l13 57l4 76v203q0 98 -17 141zM702 47q-24 -24 -63 -47q-31 -15 -76 -25l-82 -8q-72 0 -157 37q-67 37 -130 113.5t-94 183.5q-14 56 -21 114t-7 126q0 114 25 213.5t74 181t128 124t180 42.5q25 0 43 -2t31 -8q38 -8 70.5 -26.5t66.5 -49.5l66 -74l4 528h184v-526
l68 72q28 25 61 45q10 6 33 14.5t41 14.5l47 12h31q54 0 96 -9.5t80 -31.5q74 -38 129 -125q47 -67 76 -182q14 -56 21 -107t7 -106q0 -131 -30.5 -233.5t-92.5 -188.5q-53 -66 -133 -115q-72 -37 -155 -37q-52 0 -81 7t-38.5 10t-34.5 14q-18 6 -34 17t-31 30l-27 35
l-29 47l-4 -549h-184v551q-25 -49 -58 -82zM958 293q14 -57 43 -98q30 -36 76 -62q22 -8 49 -14t50 -6q68 0 123 31t87 96l25 61l21 74l14 78l4 82v45v12v22q-3 11 -4 15q0 25 -12 67q-7 37 -19 69t-31 60q-30 56 -86 86q-50 31 -124 31q-47 0 -91 -18q-38 -17 -75 -56
q-30 -34 -50 -98l-10 -65l-4 -78v-199q0 -86 14 -135z" />
    <glyph glyph-name="g" unicode="g" horiz-adv-x="795" 
d="M760 1071v-160h-441v-911h-184v1071h625z" />
    <glyph glyph-name="h" unicode="h" horiz-adv-x="1024" 
d="M248 0h-228l375 549l-356 522h231l254 -373l242 373h221l-362 -522l379 -549h-232l-272 399z" />
    <glyph glyph-name="i" unicode="i" 
d="M311 1071v-801l490 801h211v-1071h-185v801l-489 -801h-211v1071h184z" />
    <glyph glyph-name="j" unicode="j" horiz-adv-x="455" 
d="M0 -262l68 6l41 18q7 9 20 37l6 62v1210h184v-1221l-2 -49q0 -26 -14 -65q-12 -45 -43 -84q-13 -14 -35 -27q-17 -10 -53 -26q-66 -21 -139 -21l-68 6v154h35zM319 1470v-208h-184v208h184z" />
    <glyph glyph-name="k" unicode="k" 
d="M336 1071v-508l541 508h241l-469 -432l477 -639h-237l-373 516l-180 -168v-348h-184v1071h184z" />
    <glyph glyph-name="l" unicode="l" horiz-adv-x="1251" 
d="M473 911l-16 -514q0 -214 -70 -323q-34 -53 -85.5 -80t-121.5 -27l-43 2l-28 6q-15 0 -25 9l-21 16v145l21 -10l18 -6q15 0 19 -4h20q30 0 54 14q12 10 21.5 21t21.5 30q15 35 24 93l8 145l21 643h825v-1071h-184v911h-459z" />
    <glyph glyph-name="m" unicode="m" horiz-adv-x="1364" 
d="M391 1071l289 -899l297 899h252v-1071h-172v862l-287 -862h-176l-283 862l-4 -862h-172v1071h256z" />
    <glyph glyph-name="n" unicode="n" 
d="M319 1071v-432h500v432h185v-1071h-185v479h-500v-479h-184v1071h184z" />
    <glyph glyph-name="o" unicode="o" 
d="M436 913q-56 -27 -98 -84q-18 -26 -33 -57.5t-29 -71.5l-14 -82q-6 -42 -6 -83q0 -95 20 -168l7 -35q2 -7 6 -17.5t10 -19.5l37 -57q39 -56 98 -86q71 -27 135 -27q77 0 133.5 27t98.5 84q21 29 35.5 60t25.5 73l15 77q6 47 6 89q0 95 -21 161q-6 29 -10 42.5t-12 27.5
q-13 26 -37 59q-42 57 -101 86q-56 31 -133 31q-37 0 -67.5 -6t-65.5 -23zM360 4q-85 38 -150 110t-106 187q-15 56 -23.5 117.5t-8.5 116.5q0 128 30 233q16 53 39.5 96t57.5 82q68 77 166 117q48 18 101 28.5t103 10.5q119 0 207.5 -38t155.5 -112.5t101 -183.5t34 -233
q0 -138 -31 -235.5t-100 -178.5q-32 -37 -72 -67t-86 -50q-94 -37 -209 -37q-113 0 -209 37z" />
    <glyph glyph-name="p" unicode="p" 
d="M319 911v-911h-184v1071h869v-1071h-185v911h-500z" />
    <glyph glyph-name="q" unicode="q" horiz-adv-x="1821" 
d="M436 911l-16 -514q0 -214 -70 -323q-35 -54 -85 -80.5t-122 -26.5l-43 2l-28 6q-15 0 -25 9l-20 16v145l20 -10l19 -6q14 0 18 -4h20q30 0 54 14q12 10 21.5 21t21.5 30q15 35 24 93l8 145l21 643h825v-403h297q84 0 154 -25q69 -18 117 -65q48 -43 75 -111
q13 -34 20 -67t7 -68q0 -40 -6 -73t-21 -66q-12 -32 -29.5 -56.5t-43.5 -48.5q-42 -42 -119 -68l-76 -14q-41 -6 -78 -6h-481v911h-459zM1354 147h45q6 2 18 4.5t21 4.5q22 6 39 14.5t30 19.5q24 21 41 59t17 83q0 51 -15 80q-7 17 -15.5 28.5t-25.5 24.5q-12 12 -28 21.5
t-39 17.5l-43 10l-45 4l-275 2v-373h275z" />
    <glyph glyph-name="r" unicode="r" 
d="M309 1071v-147q14 28 51 71q29 29 65.5 53t88.5 39q27 7 54.5 11t60.5 4q46 0 88 -8t82 -27q73 -30 137 -100q29 -32 53.5 -76.5t42.5 -95.5q35 -100 35 -222q0 -170 -31.5 -276.5t-91.5 -181.5q-55 -70 -151 -113q-47 -18 -94 -26.5t-103 -8.5h-16h-15q-11 2 -16 2
q-11 0 -25.5 2t-31.5 9q-27 5 -72 30l-31 19l-35 30l-41 60l-4 -541h-184v1493h184zM717 152q55 27 92 82t55.5 129t18.5 165q0 92 -18.5 164.5t-55.5 130.5q-35 60 -90 88q-55 31 -129 31q-37 0 -65.5 -6.5t-57.5 -22.5q-27 -12 -49.5 -32.5t-42.5 -51.5q-14 -22 -27 -54.5
t-26 -76.5l-13 -77l-4 -93q0 -53 4 -91.5t15 -80.5q18 -70 49 -123.5t92 -80.5q31 -13 61 -20t64 -7q63 0 127 27z" />
    <glyph glyph-name="s" unicode="s" horiz-adv-x="1024" 
d="M938 221q-31 -69 -82.5 -131t-136 -92.5t-201.5 -30.5q-83 0 -160 31q-71 26 -149 98q-68 68 -105 176q-16 58 -24 115l-8 139q0 130 32 232q13 39 22 59q5 10 19 35q26 44 62 86q68 77 149 117l39 16l56 16q16 3 40.5 6t45.5 3q105 0 196 -31q47 -16 79.5 -37t57.5 -53
q26 -29 46.5 -60.5t33.5 -66.5l15 -57q12 -44 12 -86l-172 2q-6 52 -24.5 92t-49.5 73q-14 15 -32.5 26t-43.5 20.5t-46.5 13.5t-51.5 4q-76 0 -131 -27q-51 -23 -90 -82q-18 -26 -33 -59t-29 -78q-18 -74 -18 -174q0 -97 19 -172.5t55 -132.5q30 -43 92 -76q58 -22 123 -22
q28 0 47.5 3.5t39 11.5t32.5 16q18 11 47 34q34 32 57 80q11 25 20 52t17 63l172 2q0 -24 -2 -41.5t-8 -32.5q-6 -39 -29 -80z" />
    <glyph glyph-name="t" unicode="t" horiz-adv-x="1024" 
d="M51 911v160h922v-160h-369v-911h-184v911h-369z" />
    <glyph glyph-name="u" unicode="u" horiz-adv-x="1024" 
d="M225 1071l285 -872l289 872h202l-409 -1114q-46 -129 -88 -207q-20 -42 -37 -69.5t-35 -45.5q-24 -30 -82 -49q-26 -9 -59.5 -14.5t-67.5 -5.5l-33 2l-26 2q-21 0 -25 4q-14 0 -18 4v166l22 -6l27 -6l29 -4l30 -2q46 0 74 22q30 17 57 72l60 151l-397 1100h202z" />
    <glyph glyph-name="v" unicode="v" 
d="M608 1071q188 0 289.5 -72.5t101.5 -214.5q0 -46 -8 -67q-6 -31 -24 -55q-13 -24 -41 -48l-58 -45l41 -18l37 -25q25 -13 60 -51q17 -22 32 -65l11 -43l4 -45q0 -75 -25 -133.5t-76 -106.5q-22 -19 -57.5 -35t-76 -26t-89.5 -15.5t-92 -5.5h-485v1071h456zM616 147h78
l41 9q27 7 44 13.5t31 18t25.5 26.5t17.5 30.5t10 34.5t5 34q0 40 -14 72q-11 30 -37 51q-21 17 -76 33l-77 10l-48 2l-280 2v-336h280zM614 618l84 7q38 9 62 26q21 17 41 51q3 10 7.5 29t6.5 37q0 36 -11.5 61.5t-35.5 47.5q-11 9 -24 17q-7 4 -31 15l-39 11l-35 2l-303 2
v-306h278z" />
    <glyph glyph-name="w" unicode="w" horiz-adv-x="1706" 
d="M319 520v-520h-184v1071h184v-403h500v403h185v-403h294q84 0 154 -25q69 -18 117 -65q24 -21 42.5 -48.5t33.5 -62.5q13 -34 19.5 -67.5t6.5 -67.5q0 -77 -26 -139.5t-74 -104.5q-43 -43 -119 -68l-76 -14q-39 -6 -78 -6h-479v520h-500zM1004 147h272h45q3 1 15 4t24 5
q44 12 68.5 33.5t41.5 59.5t17 83q0 51 -14 80q-7 16 -16 28t-25 25q-26 25 -68 39l-43 10l-45 4l-272 2v-373z" />
    <glyph glyph-name="x" unicode="x" 
d="M319 1071v-911h500v911h185v-1071h-342v-356h-185v356h-342v1071h184z" />
    <glyph glyph-name="y" unicode="y" horiz-adv-x="1024" 
d="M262 238q18 -37 57 -70l33 -21l56 -20l55 -10l63 -4l56 2q14 0 29 2.5t33.5 7.5t34 12.5t32.5 22.5q28 23 51 55q18 32 18 74q0 39 -43 82q-35 26 -127 59l-168 45l-161 47q-45 19 -76.5 42t-54.5 54q-44 59 -44 142q0 76 24 139.5t87 110.5q28 22 58.5 38t72.5 29
q75 25 158 25q91 0 166 -25q71 -20 133 -67q52 -41 83.5 -108.5t31.5 -135.5l-172 2q0 81 -68 137q-67 49 -184 49q-33 0 -56 -2t-41 -8q-17 -3 -31 -10.5t-32 -22.5q-29 -18 -43 -53q-5 -13 -8.5 -30.5t-5.5 -32.5q0 -26 9.5 -47t30.5 -41q40 -29 127 -58l166 -45l166 -43
q88 -37 129 -96q22 -28 33.5 -62t11.5 -75q0 -45 -6.5 -79t-21.5 -65q-21 -52 -80 -114q-52 -46 -135 -76q-46 -13 -90.5 -20t-94.5 -7h-29q-46 0 -75 4q-22 0 -51 8q-7 2 -35 11q-85 18 -140.5 61.5t-93.5 120.5q-14 35 -21 74t-7 90l172 2q0 -52 18 -100z" />
    <glyph glyph-name="z" unicode="z" horiz-adv-x="1024" 
d="M485 639l90 6q27 3 47 8t35 15q30 11 54 47q20 33 20 65q0 29 -11.5 55.5t-45.5 59.5q-15 18 -64 33q-26 7 -48 10.5t-44 3.5q-28 0 -78 -12l-37 -12l-38 -21q-12 -7 -33 -31q-14 -15 -27 -30q-7 -11 -13.5 -33t-15.5 -62l-172 2l15 86q6 30 31 76q29 59 92 107
q33 22 65 38t72 29l70 17q36 6 75 6q47 0 77.5 -4t66.5 -17q66 -18 129 -61q56 -38 86 -94q15 -28 23.5 -63t8.5 -75q0 -21 -2 -39.5t-8 -35.5q-5 -19 -12.5 -33t-22.5 -29q-13 -16 -53 -41l-78 -32q33 -7 76 -31q22 -10 35 -20t35 -31q15 -16 27.5 -35t21.5 -43
q18 -44 18 -101q0 -82 -31 -142.5t-100 -117.5q-58 -36 -141 -63q-42 -13 -81.5 -20t-82.5 -7q-98 0 -182 25q-78 21 -146 69q-51 41 -96 117q-26 53 -41 150l185 2q3 -31 9.5 -53t18.5 -44q8 -13 18 -25q18 -22 42 -38q33 -19 88 -35l47 -8l55 -2q56 0 103.5 11.5
t82.5 37.5q27 21 52 62l12 38l4 39q0 23 -3.5 38.5t-12 32.5t-19.5 30.5t-28 25.5q-31 25 -78 37t-111 12l-104 -4v154h73z" />
    <glyph glyph-name="braceleft" unicode="{" horiz-adv-x="1593" 
d="M319 1071v-911h386v911h184v-911h385v911h184v-1071h-1323v1071h184z" />
    <glyph glyph-name="bar" unicode="|" horiz-adv-x="795" 
d="M760 1071v-160h-441v-911h-184v1071h625zM664 1507l-269 -295h-137l182 295h224z" />
    <glyph glyph-name="braceright" unicode="}" 
d="M336 1071v-508l541 508h241l-469 -432l477 -639h-237l-373 516l-180 -168v-348h-184v1071h184zM877 1507l-269 -295h-137l182 295h224z" />
    <glyph glyph-name="asciitilde" unicode="~" 
d="M668 412l-160 -6q-130 0 -195 16q-33 8 -64.5 22t-60.5 33q-41 34 -77 92q-25 54 -25 140v362h184v-334q0 -48 13 -84q7 -16 16.5 -29.5t28.5 -29.5q7 -5 13.5 -8.5t14.5 -7.5l52 -13l81 -12h62l82 2h29l45 4l63 8l49 15v489h185v-1071h-185v432z" />
    <glyph glyph-name="quotesinglbase" unicode="&#x201a;" horiz-adv-x="455" 
d="M124 0v209h193v-165q0 -134 -31 -193q-42 -80 -134 -122l-44 71q53 21 80 70q15 25 22.5 56t7.5 74h-94z" />
    <glyph glyph-name="florin" unicode="&#x192;" 
d="M46 -405l35 155q47 -10 87.5 -16t64.5 -6q54 0 83 27.5t45 124.5l177 1042h-201l24 140h201l24 133q21 120 45 165q30 61 88 96.5t151 35.5q82 0 215 -38l-35 -153q-102 24 -154 24q-56 0 -83 -27t-48 -133l-19 -103h204l-25 -140h-204l-191 -1092q-25 -147 -86 -204
t-174 -57q-48 0 -102 6t-122 20z" />
    <glyph glyph-name="quotedblbase" unicode="&#x201e;" horiz-adv-x="682" 
d="M87 0v209h193v-165q0 -134 -31 -193q-42 -80 -134 -122l-44 71q53 21 80 70q15 25 22.5 56t7.5 74h-94zM397 0v209h193v-165q0 -134 -31 -193q-42 -80 -134 -122l-44 71q53 21 80 70q15 25 22.5 56t7.5 74h-94z" />
    <glyph glyph-name="ellipsis" unicode="&#x2026;" horiz-adv-x="2048" 
d="M239 0v205h205v-205h-205zM922 0v205h205v-205h-205zM1604 0v205h206v-205h-206z" />
    <glyph glyph-name="dagger" unicode="&#x2020;" 
d="M472 -346v1212h-399v160h399v406h180v-406h402v-160h-402v-1212h-180z" />
    <glyph glyph-name="daggerdbl" unicode="&#x2021;" 
d="M475 -346v370h-402v161h402v725h-402v161h402v375h180v-375h403v-161h-403v-725h403v-161h-403v-370h-180z" />
    <glyph glyph-name="circumflex" unicode="&#x2c6;" horiz-adv-x="682" 
d="M344 1364l-113 -170h-206l216 280h192l225 -280h-204z" />
    <glyph glyph-name="perthousand" unicode="&#x2030;" horiz-adv-x="2048" 
d="M320 -54l601 1545h131l-600 -1545h-132zM37 1099q0 197 78.5 288.5t207.5 91.5q127 0 207.5 -91t80.5 -285q0 -195 -69.5 -295t-216.5 -100q-127 0 -207.5 93.5t-80.5 297.5zM185 1091q0 -151 39 -204.5t105 -53.5q58 0 91 45q43 61 43 215q0 152 -44 215q-33 47 -94 47
t-95 -46q-45 -63 -45 -218zM763 336q0 197 78.5 288.5t206.5 91.5q127 0 208 -90.5t81 -285.5t-69.5 -294.5t-216.5 -99.5q-128 0 -208 93t-80 297zM911 328q0 -149 39 -203.5t105 -54.5q58 0 91 45q43 61 43 215q0 152 -45 215q-33 47 -93 47q-61 0 -95 -46
q-45 -62 -45 -218zM1437 336q0 197 78.5 288.5t207.5 91.5q127 0 207.5 -91t80.5 -285q0 -195 -69.5 -294.5t-216.5 -99.5q-128 0 -208 93t-80 297zM1585 328q0 -149 39 -203.5t105 -54.5q58 0 91 45q43 61 43 215q0 153 -44 215q-33 47 -94 47t-95 -46q-45 -62 -45 -218z
" />
    <glyph glyph-name="guilsinglleft" unicode="&#x2039;" horiz-adv-x="682" 
d="M291 527l265 -455h-149l-315 455l315 457h149z" />
    <glyph glyph-name="quoteleft" unicode="&#x2018;" horiz-adv-x="455" 
d="M321 1220v-209h-193v165q0 134 32 194q42 79 133 121l44 -70q-54 -22 -81 -69q-14 -24 -21.5 -56.5t-7.5 -75.5h94z" />
    <glyph glyph-name="quoteright" unicode="&#x2019;" horiz-adv-x="455" 
d="M124 1272v209h193v-165q0 -134 -31 -193q-42 -80 -134 -122l-44 71q53 21 80 69q15 26 22.5 57.5t7.5 73.5h-94z" />
    <glyph glyph-name="quotedblleft" unicode="&#x201c;" horiz-adv-x="682" 
d="M276 1220v-209h-193v165q0 134 32 194q42 79 133 121l44 -70q-54 -22 -81 -69q-14 -24 -21.5 -56.5t-7.5 -75.5h94zM586 1220v-209h-193v165q0 134 32 194q42 79 133 121l44 -70q-54 -22 -81 -69q-14 -24 -21.5 -56.5t-7.5 -75.5h94z" />
    <glyph glyph-name="quotedblright" unicode="&#x201d;" horiz-adv-x="682" 
d="M87 1272v209h193v-165q0 -134 -31 -193q-42 -80 -134 -122l-44 71q53 21 80 69q15 26 22.5 57.5t7.5 73.5h-94zM397 1272v209h193v-165q0 -134 -31 -193q-42 -80 -134 -122l-44 71q53 21 80 69q15 26 22.5 57.5t7.5 73.5h-94z" />
    <glyph glyph-name="bullet" unicode="&#x2022;" horiz-adv-x="717" 
d="M109 718q0 105 75 179t178 74q105 0 179.5 -74t74.5 -179t-74.5 -179.5t-179.5 -74.5q-104 0 -178.5 75t-74.5 179z" />
    <glyph glyph-name="endash" unicode="&#x2013;" 
d="M-4 458v145h1139v-145h-1139z" />
    <glyph glyph-name="emdash" unicode="&#x2014;" horiz-adv-x="2048" 
d="M0 458v145h2048v-145h-2048z" />
    <glyph glyph-name="tilde" unicode="&#x2dc;" horiz-adv-x="682" 
d="M7 1219q0 103 57 165.5t146 62.5q61 0 169 -54q59 -30 94 -30q32 0 49 17.5t24 69.5h130q0 -57 -14.5 -99.5t-43.5 -71.5q-54 -57 -138 -57q-64 0 -166 56q-66 36 -98 36t-55 -24q-21 -24 -21 -71h-133z" />
    <glyph glyph-name="trademark" unicode="&#x2122;" horiz-adv-x="2048" 
d="M489 651v694h-264v121h666v-121h-266v-694h-136zM982 651v815h200l206 -651l199 651h196v-815h-124v684l-210 -684h-123l-219 694v-694h-125z" />
    <glyph glyph-name="scaron" unicode="&#x161;" horiz-adv-x="1024" 
d="M507 1304l110 170h204l-225 -280h-192l-216 280h206zM938 221q-31 -69 -82.5 -131t-136 -92.5t-201.5 -30.5q-83 0 -160 31q-71 26 -149 98q-68 68 -105 176q-16 58 -24 115l-8 139q0 130 32 232q13 39 22 59q5 10 19 35q26 44 62 86q68 77 149 117l39 16l56 16
q16 3 40.5 6t45.5 3q105 0 196 -31q47 -16 79.5 -37t57.5 -53q26 -29 46.5 -60.5t33.5 -66.5l15 -57q12 -44 12 -86l-172 2q-6 52 -24.5 92t-49.5 73q-14 15 -32.5 26t-43.5 20.5t-46.5 13.5t-51.5 4q-76 0 -131 -27q-51 -23 -90 -82q-18 -26 -33 -59t-29 -78
q-18 -74 -18 -174q0 -97 19 -172.5t55 -132.5q30 -43 92 -76q58 -22 123 -22q28 0 47.5 3.5t39 11.5t32.5 16q18 11 47 34q34 32 57 80q11 25 20 52t17 63l172 2q0 -24 -2 -41.5t-8 -32.5q-6 -39 -29 -80z" />
    <glyph glyph-name="guilsinglright" unicode="&#x203a;" horiz-adv-x="682" 
d="M392 530l-265 454h149l304 -448l-304 -464h-149z" />
    <glyph glyph-name="oe" unicode="&#x153;" horiz-adv-x="1933" 
d="M978 175q-74 -98 -174.5 -148.5t-221.5 -50.5q-226 0 -363 143t-137 399q0 168 58 301.5t178 200t266 66.5q139 0 240.5 -57.5t153.5 -145.5q63 93 164.5 148t224.5 55q218 0 354 -150t136 -453h-784q0 -83 23 -147.5t69 -115.5q90 -96 224 -96q99 0 170 55t104 167
l180 -26q-42 -166 -160.5 -255t-296.5 -89q-135 0 -240 52.5t-168 146.5zM267 533q0 -187 71 -283q92 -126 239 -126q128 0 220.5 106t92.5 305t-91 301t-222 102q-87 0 -159.5 -48.5t-111.5 -145.5t-39 -211zM1080 631h587q0 73 -24 129t-68 100q-78 78 -197 78
q-121 0 -204 -82q-45 -44 -68 -96q-26 -59 -26 -129z" />
    <glyph glyph-name="nonbreakingspace" unicode="&#xa0;" horiz-adv-x="569" 
 />
    <glyph glyph-name="exclamdown" unicode="&#xa1;" horiz-adv-x="682" 
d="M445 1062v-205h-207v205h207zM398 697l55 -776v-325h-223v325l52 776h116z" />
    <glyph glyph-name="cent" unicode="&#xa2;" 
d="M744 894l-222 -766q33 -9 61 -9q104 0 179 71t93 199l179 -20q-33 -185 -157 -291t-291 -106q-51 0 -103 14l-118 -395l-112 32l115 398q-113 53 -188 183q-35 64 -54 145t-19 177q0 177 58.5 305t176 192t236.5 64q31 0 45.5 -1t54.5 -7l113 387l110 -32l-112 -387
q99 -42 151 -114t75 -183l-175 -27q-25 111 -96 171zM638 940l-50 3q-81 0 -152 -45t-107.5 -141.5t-36.5 -221.5q0 -134 32 -224t91 -134z" />
    <glyph glyph-name="sterling" unicode="&#xa3;" 
d="M396 809h315v-148h-284q19 -46 19 -88q0 -86 -41.5 -183.5t-136.5 -198.5q82 22 144 22q84 0 187 -25q173 -41 233 -41q39 0 84.5 13t107.5 43l58 -165q-93 -39 -143 -51t-100 -12q-33 0 -46.5 1.5t-39 6t-129.5 36.5q-39 12 -84 25q-26 8 -49 12.5t-44.5 6.5t-48.5 2
q-73 0 -154 -25q-44 -13 -77.5 -28.5t-70.5 -39.5l-69 173q96 52 163 152t67 240q0 29 -4 61t-13 63h-196v148h154q-33 112 -42 163t-9 101q0 207 154 325q123 93 300 93q180 0 297 -99.5t146 -279.5l-179 -27q-15 120 -89.5 189t-178.5 69q-110 0 -184 -71.5t-74 -172.5
q0 -110 57 -290z" />
    <glyph glyph-name="currency" unicode="&#xa4;" 
d="M213 961l-139 136l115 119l139 -139q105 72 237 72t237 -72l139 139l116 -119l-139 -136q71 -110 71 -235q0 -127 -71 -236l139 -136l-116 -119l-139 140q-106 -73 -237 -73t-237 73l-139 -140l-115 119l139 136q-71 110 -71 236q0 64 17 121t54 114zM305 726
q0 -108 76 -184t183 -76t183 76q38 38 57 83t19 101q0 107 -76 183t-183 76t-183 -76t-76 -183z" />
    <glyph glyph-name="yen" unicode="&#xa5;" 
d="M477 0v325h-415v139h415v143h-415v148h341l-406 711h200l290 -516q47 -85 76 -154q23 55 82 163l274 507h214l-405 -711h341v-148h-412v-143h412v-139h-412v-325h-180z" />
    <glyph glyph-name="brokenbar" unicode="&#xa6;" horiz-adv-x="532" 
d="M345 1491v-790h-157v790h157zM345 360v-791h-157v791h157z" />
    <glyph glyph-name="section" unicode="&#xa7;" 
d="M143 -70l181 26q27 -129 88.5 -182t166.5 -53q103 0 160 52t57 122q0 50 -36 94q-60 74 -340 245q-149 91 -206 141.5t-96 122.5q-17 33 -27 70.5t-10 75.5q0 96 60 173.5t165 109.5q-71 68 -100 125.5t-29 122.5q0 128 100 222t265 94q187 0 292 -88.5t126 -258.5
l-187 -19q-21 121 -73 169.5t-142 48.5q-92 0 -148.5 -49t-56.5 -110q0 -51 36 -96q55 -66 306 -220q151 -93 212 -141q69 -59 103.5 -124t34.5 -139q0 -113 -73 -193q-42 -45 -154 -93q79 -59 119 -130.5t40 -150.5q0 -88 -49.5 -166t-143.5 -120t-204 -42
q-190 0 -301.5 95t-135.5 266zM728 244q72 37 109.5 88.5t37.5 98.5q0 58 -52 120t-225 169q-136 84 -204 138q-81 -45 -115.5 -91.5t-34.5 -102.5q0 -64 45 -119.5t208 -152.5q137 -80 231 -148z" />
    <glyph glyph-name="dieresis" unicode="&#xa8;" horiz-adv-x="682" 
d="M61 1270v205h188v-205h-188zM434 1270v205h188v-205h-188z" />
    <glyph glyph-name="copyright" unicode="&#xa9;" horiz-adv-x="1509" 
d="M758 1491q95 0 186.5 -24t184.5 -74q180 -96 281.5 -278t101.5 -379q0 -196 -99.5 -375t-279 -279t-375.5 -100q-194 0 -374.5 99t-280.5 280.5t-100 374.5q0 198 101.5 379t282.5 278.5t371 97.5zM758 1366q-159 0 -309.5 -81.5t-235.5 -233.5t-85 -315t83 -311.5
t234 -233t313 -84.5q163 0 312.5 83.5t233 233.5t83.5 312q0 164 -84 314.5t-236 233t-309 82.5zM1000 614l123 -36q-30 -124 -127.5 -199t-236.5 -75q-175 0 -285.5 114.5t-110.5 315.5q0 133 50 230t143 146.5t211 49.5q132 0 220 -63.5t121 -172.5l-119 -29
q-30 73 -88.5 113t-137.5 40q-114 0 -189 -82t-75 -235t70.5 -231.5t182.5 -78.5q90 0 158 51.5t90 141.5z" />
    <glyph glyph-name="ordfeminine" unicode="&#xaa;" horiz-adv-x="758" 
d="M548 853q-122 -107 -256 -107q-112 0 -178.5 61.5t-66.5 157.5q0 49 16 84q15 37 47 64t82 45q35 11 99 21l147 22q30 5 56 10.5t40 9.5q0 70 -14 94q-11 23 -47.5 41t-95.5 18q-77 0 -117 -32.5t-49 -92.5l-137 34q12 88 87.5 148t217.5 60q164 0 231.5 -61.5
t67.5 -180.5v-240l-1 -61q0 -134 41 -184h-148q-11 21 -16.5 42t-5.5 47zM533 1104q-52 -13 -192 -36q-90 -13 -117.5 -39t-27.5 -64q0 -40 34 -69.5t96 -29.5q71 0 126 39t73 96q8 26 8 103z" />
    <glyph glyph-name="guillemotleft" unicode="&#xab;" 
d="M340 528l259 -456h-146l-319 456l319 456h148zM727 528l264 -456h-152l-313 456l313 456h152z" />
    <glyph glyph-name="logicalnot" unicode="&#xac;" horiz-adv-x="1196" 
d="M1082 424h-170v438h-798v168h968v-606z" />
    <glyph glyph-name="minus" unicode="&#xad;" horiz-adv-x="682" 
d="M65 440v181h553v-181h-553z" />
    <glyph glyph-name="registered" unicode="&#xae;" horiz-adv-x="1509" 
d="M758 1491q95 0 186.5 -24t184.5 -74q180 -96 281.5 -278t101.5 -379q0 -196 -99.5 -375t-279 -279t-375.5 -100q-194 0 -374.5 99t-280.5 280.5t-100 374.5q0 198 101.5 379t282.5 278.5t371 97.5zM758 1366q-159 0 -309.5 -81.5t-235.5 -233.5t-85 -315t83 -311.5
t234 -233t313 -84.5q163 0 312.5 83.5t233 233.5t83.5 312q0 164 -84 314.5t-236 233t-309 82.5zM427 319v812h279q145 0 207.5 -22t101 -78.5t38.5 -119.5q0 -88 -63 -154t-169 -75q43 -18 69 -43q50 -50 120 -161l99 -159h-160l-72 128q-85 151 -137 189q-37 28 -105 28
h-77v-345h-131zM558 776h159q114 0 155.5 33.5t41.5 90.5q0 37 -19.5 64.5t-56 42t-131.5 14.5h-149v-245z" />
    <glyph glyph-name="macron" unicode="&#xaf;" horiz-adv-x="1131" 
d="M-31 1566v129h1193v-129h-1193z" />
    <glyph glyph-name="degree" unicode="&#xb0;" horiz-adv-x="819" 
d="M128 1214q0 113 81 195t196 82q114 0 196 -81t82 -196q0 -114 -81.5 -196t-196.5 -82q-113 0 -195 81t-82 197zM237 1214q0 -70 50 -119.5t119 -49.5t118.5 49.5t49.5 119.5q0 69 -49 119t-119 50t-119.5 -49.5t-49.5 -119.5z" />
    <glyph glyph-name="plusminus" unicode="&#xb1;" horiz-adv-x="1124" 
d="M477 260v403h-399v167h399v399h170v-399h399v-167h-399v-403h-170zM1046 0h-968v168h968v-168z" />
    <glyph glyph-name="twosuperior" unicode="&#xb2;" horiz-adv-x="682" 
d="M25 733q6 59 47 114q62 84 206.5 189.5t171.5 135.5q37 42 37 84q0 48 -35 79q-18 15 -43 23t-60 8q-66 0 -97.5 -23t-54.5 -91l-151 16q28 111 100.5 163.5t205.5 52.5q150 0 221 -59t71 -144t-59 -159q-46 -56 -205 -171q-82 -60 -118 -97h386v-121h-623z" />
    <glyph glyph-name="threesuperior" unicode="&#xb3;" horiz-adv-x="682" 
d="M33 929l146 15q19 -60 52 -82q42 -30 102 -30q70 0 113.5 39.5t43.5 93.5q0 48 -36 80q-36 30 -123 30l-33 -2l-22 -1l22 110q40 0 69.5 7t48.5 22q38 30 38 73q0 36 -30.5 62.5t-88.5 26.5q-56 0 -87.5 -21.5t-54.5 -80.5l-143 23q40 105 103 147.5t183 42.5
q143 0 209 -53.5t66 -133.5q0 -53 -34.5 -96t-103.5 -64q88 -21 130.5 -72t42.5 -119q0 -93 -78.5 -162t-225.5 -69q-140 0 -213 55t-96 159z" />
    <glyph glyph-name="acute" unicode="&#xb4;" horiz-adv-x="682" 
d="M222 1194l133 280h236l-220 -280h-149z" />
    <glyph glyph-name="mu" unicode="&#xb5;" horiz-adv-x="1180" 
d="M1018 1062v-1062h-161v126q-50 -78 -103 -110q-70 -41 -163 -41q-82 0 -147 33q-47 24 -106 99v-514h-178v1469h178v-450q0 -247 26 -318.5t84.5 -113.5t134.5 -42q80 0 142.5 43.5t89 113.5t26.5 314v453h177z" />
    <glyph glyph-name="paragraph" unicode="&#xb6;" horiz-adv-x="1100" 
d="M405 -407v1045q-91 0 -164.5 31t-131.5 90q-108 111 -108 285q0 191 120.5 306.5t352.5 115.5h633v-173h-144v-1700h-170v1700h-223v-1700h-165z" />
    <glyph glyph-name="periodcentered" unicode="&#xb7;" horiz-adv-x="569" 
d="M185 619v205h205v-205h-205z" />
    <glyph glyph-name="periodcentered" unicode="&#x2219;" horiz-adv-x="569" 
d="M185 619v205h205v-205h-205z" />
    <glyph glyph-name="cedilla" unicode="&#xb8;" horiz-adv-x="682" 
d="M216 -154l52 177h134l-33 -107q83 -9 127 -52t44 -95q0 -75 -72.5 -132.5t-216.5 -57.5q-81 0 -144 12l11 117l94 -4q94 0 132 26q29 20 29 49q0 17 -11 31t-43 25q-18 5 -42 8t-61 3z" />
    <glyph glyph-name="onesuperior" unicode="&#xb9;" horiz-adv-x="682" 
d="M331 733v554q-101 -80 -224 -113v123q63 20 138 73t123 114h108v-751h-145z" />
    <glyph glyph-name="ordmasculine" unicode="&#xba;" horiz-adv-x="748" 
d="M373 1491q143 0 235.5 -100t92.5 -276q0 -174 -92 -274.5t-235 -100.5q-145 0 -237 98t-92 273q0 180 91.5 280t236.5 100zM373 1358q-80 0 -130 -57.5t-50 -185.5q0 -126 51 -184.5t129 -58.5q79 0 129.5 58.5t50.5 189.5q0 121 -50.5 179.5t-129.5 58.5z" />
    <glyph glyph-name="guillemotright" unicode="&#xbb;" 
d="M791 528l-261 456h148l319 -456l-319 -456h-147zM404 528l-264 456h151l314 -456l-314 -456h-151z" />
    <glyph glyph-name="onequarter" unicode="&#xbc;" horiz-adv-x="1708" 
d="M252 -57l1102 1548h156l-1101 -1548h-157zM331 733v554q-101 -80 -224 -113v123q63 20 138 73t123 114h108v-751h-145zM1430 -31v154h-383v123l405 474h122v-489h104v-108h-104v-154h-144zM1430 231v263l-230 -263h230z" />
    <glyph glyph-name="onehalf" unicode="&#xbd;" horiz-adv-x="1708" 
d="M228 -57l1101 1548h157l-1101 -1548h-157zM331 733v554q-101 -80 -224 -113v123q63 20 138 73t123 114h108v-751h-145zM1049 -31q6 54 48 113q61 86 205.5 190.5t171.5 135.5q37 42 37 84q0 49 -35 78q-34 31 -103 31q-66 0 -98 -23t-54 -90l-151 15q28 111 101 164
t205 53q150 0 221 -59t71 -144t-59 -159q-44 -54 -204 -172q-80 -57 -119 -96h386v-121h-623z" />
    <glyph glyph-name="threequarters" unicode="&#xbe;" horiz-adv-x="1708" 
d="M252 -57l1101 1548h157l-1101 -1548h-157zM33 929l146 15q19 -60 52 -82q42 -30 102 -30q70 0 113.5 39.5t43.5 93.5q0 48 -36 80q-36 30 -120 30l-58 -3l22 110q40 0 69.5 7t48.5 22q38 30 38 73q0 36 -30.5 62.5t-88.5 26.5q-56 0 -87.5 -21.5t-54.5 -80.5l-143 23
q40 105 103 147.5t183 42.5q143 0 209 -53.5t66 -133.5q0 -53 -34.5 -96t-103.5 -64q88 -21 130.5 -72t42.5 -119q0 -93 -78.5 -162t-225.5 -69q-140 0 -213 55t-96 159zM1429 -31v154h-382v123l404 474h123v-489h104v-108h-104v-154h-145zM1429 231v263l-229 -263h229z" />
    <glyph glyph-name="questiondown" unicode="&#xbf;" horiz-adv-x="1251" 
d="M733 1062v-205h-205v205h205zM721 701l1 -51q0 -109 -30 -187q-10 -27 -28.5 -58t-42.5 -59q-34 -40 -128.5 -123t-122 -132t-27.5 -108q0 -104 82 -184t201 -80q113 0 191 72t102 224l184 -21q-24 -203 -148.5 -313t-325.5 -110q-215 0 -343 117.5t-128 282.5
q0 98 44.5 177.5t175.5 195.5q88 77 115.5 114.5t39.5 86.5q6 22 10.5 65.5t4.5 90.5h173z" />
    <glyph glyph-name="multiply" unicode="&#xd7;" horiz-adv-x="1196" 
d="M161 409l315 315l-314 314l122 122l314 -314l313 313l120 -121l-312 -313l314 -314l-122 -122l-314 314l-315 -315z" />
    <glyph glyph-name="divide" unicode="&#xf7;" horiz-adv-x="1124" 
d="M459 922v205h205v-205h-205zM1046 639h-968v168h968v-168zM459 319v205h205v-205h-205z" />
  </font>
</defs>
</svg>
